<svg id="Capa_1" data-name="Capa 1" xmlns="http://www.w3.org/2000/svg" viewBox="0 0 850.3937 850.49039"><title>iMegaIsotipoBlanco</title><path d="M417.59717,509.13345s1.87536,6.26755,3.70759-.06376,10.32215-31.2677,13.03713-42.6738,18.38645-67.60907,32.4079-96.92266c4.60212-9.6213,27.63754-43.05445,60.50683-53.91875,54.53028-18.02392,79.29,45.47946,81.26381,51.47338s26.02187,96.65761-35.37366,200.52776c-10.67811,19.39742-35.84528,46.89663-35.84528,46.89663s-9.5959,7.767-6.346-5.1391l3.39766-25.23586s.26315-48.19859-.05974-60.85968-2.508-70.49121-6.444-89.82348-9.96479-33.32379-14.10024-40.30793-10.32162-12.54009-12.916-.64527c-2.48154,11.37734-9.38811,52.63487-10.36571,60.547s-8.06321,67.65557-8.06321,67.65557L464.91021,640.91839s-6.22858,26.72225,5.95568,50.4386,43.324,36.01464,77.80741,16.69969S647.674,613.35536,665.39952,542.23582c24.51265-83.19028,17.39351-179.35287-4.42443-230.78546C638.10863,254.92717,560.922,235.40075,484.79147,246.2135c-18.79308,3.93851-50.808,20.74222-50.808,20.74222s-26.69122,21.96315-62.93521-2.7562S283.54657,246.123,283.54657,246.123s-52.11671,1.92564-93.92416,45.3747-41.24662,129.40382-41.24662,129.40382S155.91264,566.6099,219.9514,650.2414c20.44212,26.69641,61.73752,65.20785,81.726,65.31923,9.2065.0513,36.81281-3.00864,45.29369-18.68372s14.13517-35.997,11.34476-57.54586-12.9144-117.37-13.49448-124.46466-7.1571-85.88119-9.26028-98.55353-6.99386-40.66987-19.93689-9.01939-18.733,86.43053-19.72819,113.3544-1.633,86.31545-1.633,86.31545,2.1291,16.62022-8.88738,2.34329c-50.177-78.18744-97.59613-196.76695-46.90319-269.36243,6.9599-8.46788,24.87516-37.72839,71.54318-19.89215C369.44744,341.50056,397.59636,452.859,397.59636,452.859S413.04333,504.45068,417.59717,509.13345Z" style="fill:#fff"/><path d="M401.23488,246.36281s56.71633-7.1993,88.38653-39.54637,38.755-54.18906,42.08737-66.889,6.18994-30.23348,5.94459-40.38311c-.0863-3.57023-.30841-7.72857-8.86465-6.1431-10.93708,2.02664-27.6106,3.51585-56.86442,20.02759-19.22636,10.85193-40.205,34.89949-40.205,34.89949s-19.7368,26.99171-26.01063,49.25353c-6.20045,22.00141-8.171,39.779-7.93856,43.00658S398.02712,246.41462,401.23488,246.36281Z" style="fill:#fff"/></svg>